<svg width="29" height="29" viewBox="0 0 29 29" fill="none" xmlns="http://www.w3.org/2000/svg">
<path fill-rule="evenodd" clip-rule="evenodd" d="M14.5 0C6.496 0 0 6.30494 0 14.0735C0 21.8421 6.496 28.1471 14.5 28.1471C22.504 28.1471 29 21.8421 29 14.0735C29 6.30494 22.504 0 14.5 0ZM7.35163 22.9117C7.97513 21.6451 11.7741 20.4066 14.5001 20.4066C17.2261 20.4066 21.0396 21.6451 21.6486 22.9117C19.6766 24.4316 17.1971 25.3323 14.5001 25.3323C11.8031 25.3323 9.32363 24.4316 7.35163 22.9117ZM14.4999 17.5919C16.6169 17.5919 21.6484 18.4222 23.7219 20.871C25.2009 18.9852 26.0999 16.6349 26.0999 14.0735C26.0999 7.8671 20.8944 2.8147 14.4999 2.8147C8.10536 2.8147 2.89986 7.8671 2.89986 14.0735C2.89986 16.6349 3.79886 18.9852 5.27786 20.871C7.35136 18.4222 12.3829 17.5919 14.4999 17.5919ZM14.4997 5.6294C11.6867 5.6294 9.42473 7.82488 9.42473 10.5551C9.42473 13.2854 11.6867 15.4809 14.4997 15.4809C17.3127 15.4809 19.5747 13.2854 19.5747 10.5551C19.5747 7.82488 17.3127 5.6294 14.4997 5.6294ZM12.3253 10.5551C12.3253 11.7232 13.2968 12.6662 14.5003 12.6662C15.7038 12.6662 16.6753 11.7232 16.6753 10.5551C16.6753 9.38703 15.7038 8.44411 14.5003 8.44411C13.2968 8.44411 12.3253 9.38703 12.3253 10.5551Z" fill="#DADADA"/>
</svg>
