<svg width="46" height="33" viewBox="0 0 46 33" fill="none" xmlns="http://www.w3.org/2000/svg">
<g id="track_changes_24px">
<path id="icon/action/track_changes_24px" d="M41.1825 4.02875L39.185 5.9675C41.225 7.96125 42.5 10.7113 42.5 13.75C42.5 19.8275 37.4283 24.75 31.1667 24.75C24.905 24.75 19.8333 19.8275 19.8333 13.75C19.8333 8.14 24.1542 3.52 29.75 2.84625V5.62375C25.7267 6.28375 22.6667 9.66625 22.6667 13.75C22.6667 18.3013 26.4775 22 31.1667 22C35.8558 22 39.6667 18.3013 39.6667 13.75C39.6667 11.4675 38.7175 9.405 37.1733 7.92L35.1758 9.85875C36.1958 10.8625 36.8333 12.2375 36.8333 13.75C36.8333 16.7887 34.2975 19.25 31.1667 19.25C28.0358 19.25 25.5 16.7887 25.5 13.75C25.5 11.1925 27.3133 9.06125 29.75 8.4425V11.385C28.9 11.8662 28.3333 12.7325 28.3333 13.75C28.3333 15.2625 29.6083 16.5 31.1667 16.5C32.725 16.5 34 15.2625 34 13.75C34 12.7325 33.4333 11.8525 32.5833 11.385V0H31.1667C23.3466 0 17 6.16 17 13.75C17 21.34 23.3466 27.5 31.1667 27.5C38.9867 27.5 45.3333 21.34 45.3333 13.75C45.3333 9.955 43.7467 6.5175 41.1825 4.02875Z" fill="white"/>
</g>
</svg>
