<svg width="36" height="36" viewBox="0 0 36 36" fill="none" xmlns="http://www.w3.org/2000/svg">
<path d="M18.7986 0C12.7529 0.0234764 6.88055 2.70985 3.40563 7.54599C-0.0692984 12.3821 -0.973471 18.8885 1.10266 24.6737C2.44475 30.0766 7.04752 34.5774 12.4946 35.55C15.3615 32.0856 16.5587 27.3567 15.8467 22.9532C15.8372 22.9532 15.8278 22.9532 15.371 22.7319C14.1265 24.496 11.5306 25.2003 9.53322 24.3149C7.53584 23.4295 6.37018 21.055 6.9089 18.979C7.44763 16.903 9.63088 15.3603 11.7606 15.3469C9.75375 14.4849 8.55342 12.1373 9.04804 10.0513C9.54581 7.96521 11.6881 6.37888 13.8745 6.47278C16.064 6.56669 18.052 8.33413 18.3607 10.4537L18.66 10.561" fill="#8ED0A8"/>
<path d="M17.2014 0C23.2471 0.0234764 29.1195 2.70985 32.5944 7.54599C36.0694 12.3821 36.9735 18.8885 34.8974 24.6737C33.5553 30.0766 28.9525 34.5774 23.5054 35.55C20.6385 32.0856 19.4414 27.3567 20.1534 22.9532C20.1628 22.9532 20.1723 22.9532 20.6291 22.7319C21.8735 24.496 24.4695 25.2003 26.4668 24.3149C28.4642 23.4295 29.6299 21.055 29.0911 18.979C28.5524 16.903 26.3692 15.3603 24.2395 15.3469C26.2463 14.4849 27.4466 12.1373 26.952 10.0513C26.4542 7.96521 24.3119 6.37888 22.1255 6.47278C19.936 6.56669 17.9481 8.33413 17.6393 10.4537L17.34 10.561" fill="#8ED0A8"/>
</svg>
