<svg width="111" height="111" viewBox="0 0 111 111" fill="none" xmlns="http://www.w3.org/2000/svg">
<path fill-rule="evenodd" clip-rule="evenodd" d="M69.625 19.875C69.625 27.5063 63.3813 33.75 55.75 33.75C48.1188 33.75 41.875 27.5063 41.875 19.875C41.875 12.2438 48.1188 6 55.75 6C63.3813 6 69.625 12.2438 69.625 19.875ZM60.375 19.875C60.375 17.3313 58.2937 15.25 55.75 15.25C53.2062 15.25 51.125 17.3313 51.125 19.875C51.125 22.4187 53.2062 24.5 55.75 24.5C58.2937 24.5 60.375 22.4187 60.375 19.875ZM83.5 54.9325C83.5 43.37 65.1387 38.375 55.75 38.375C46.3612 38.375 28 43.37 28 54.9325V61.5H83.5V54.9325ZM55.75 47.625C49.7838 47.625 42.8925 49.8913 39.47 52.25H72.03C68.6075 49.8913 61.7163 47.625 55.75 47.625Z" fill="#89CDBA"/>
</svg>
