<svg width="34" height="33" viewBox="0 0 34 33" fill="none" xmlns="http://www.w3.org/2000/svg">
<path fill-rule="evenodd" clip-rule="evenodd" d="M28.3334 8.9375H25.245C25.4009 8.51125 25.5 8.04375 25.5 7.5625C25.5 5.28 23.6017 3.4375 21.25 3.4375C19.7625 3.4375 18.4734 4.18 17.7084 5.29375L17 6.215L16.2917 5.28C15.5267 4.18 14.2375 3.4375 12.75 3.4375C10.3984 3.4375 8.50004 5.28 8.50004 7.5625C8.50004 8.04375 8.59921 8.51125 8.75504 8.9375H5.66671C4.09421 8.9375 2.84754 10.1613 2.84754 11.6875L2.83337 26.8125C2.83337 28.3388 4.09421 29.5625 5.66671 29.5625H28.3334C29.9059 29.5625 31.1667 28.3388 31.1667 26.8125V11.6875C31.1667 10.1613 29.9059 8.9375 28.3334 8.9375ZM21.25 6.1875C22.0292 6.1875 22.6667 6.80625 22.6667 7.5625C22.6667 8.31875 22.0292 8.9375 21.25 8.9375C20.4709 8.9375 19.8334 8.31875 19.8334 7.5625C19.8334 6.80625 20.4709 6.1875 21.25 6.1875ZM14.1667 7.5625C14.1667 6.80625 13.5292 6.1875 12.75 6.1875C11.9709 6.1875 11.3334 6.80625 11.3334 7.5625C11.3334 8.31875 11.9709 8.9375 12.75 8.9375C13.5292 8.9375 14.1667 8.31875 14.1667 7.5625ZM28.3334 24.0625V26.8125H5.66671V24.0625H28.3334ZM5.66671 11.6875V19.9375H28.3334V11.6875H21.1367L24.0834 15.5787L21.7884 17.1875L17 10.8625L12.2117 17.1875L9.91671 15.5787L12.8634 11.6875H5.66671Z" fill="#DADADA"/>
</svg>
